<svg id="Layer_1" data-name="Layer 1" xmlns="http://www.w3.org/2000/svg" viewBox="0 0 100 100">
    <defs>
        <style>
            .cls-1{fill:none;}.cls-2{fill:#fff;}.cls-3{fill:#efda18;}.cls-4{fill:#b5b5b4;}
        </style>
    </defs>
    <circle class="cls-1" cx="50" cy="50" r="44.64"/>
    <path class="cls-2" d="M50,5.36A44.64,44.64,0,1,1,5.36,50,44.63,44.63,0,0,1,50,5.36M50,0a50,50,0,1,0,50,50A50.06,50.06,0,0,0,50,0Z"/>
    <circle class="cls-2" cx="36.13" cy="85.35" r="3.51"/>
    <circle class="cls-2" cx="64.2" cy="85.35" r="3.51"/>
    <circle class="cls-1" cx="50" cy="50" r="44.64"/>
    <path class="cls-2" d="M11.48,80h5.38a6.79,6.79,0,0,1,6.77-6.64c.2,0,.41,0,.61,0l.58,0a17,17,0,0,1,4.64,1.36,66.57,66.57,0,0,1-2.85-6.06A13.75,13.75,0,0,1,25.74,64a14,14,0,0,1,14-14,14.27,14.27,0,0,1,11.38,5.56L53,58.05l2.19-2.31a11.51,11.51,0,0,1,8.45-3.64A11.65,11.65,0,0,1,75.31,63.73c0,.25,0,.5,0,.75a6.65,6.65,0,0,1-2.45,4.36,6.76,6.76,0,0,1,4.08.35,11.12,11.12,0,0,1,6.25,10,8.44,8.44,0,0,1,0,.87H88.5c0-.29,0-.58,0-.87a16.51,16.51,0,0,0-7.89-14.07c0-.45,0-.9,0-1.36A17,17,0,0,0,53.5,50.1a19.82,19.82,0,0,0-13.76-5.53A19.42,19.42,0,0,0,20.85,68.33,12.16,12.16,0,0,0,11.48,80Z"/>
    <path class="cls-2" d="M50.06,12.24h-.12a11.27,11.27,0,0,0-8.5,18.5A11.19,11.19,0,0,1,43.27,34c.4,1.64.49,2.16.5,2.16h0l.08.77v3.13l0,.46c.25,1.56,1.8,4.23,6,4.33h.14c4.24-.1,5.79-2.77,6-4.33l0-3.44.09-.84s.08-.51.51-2.23a11.19,11.19,0,0,1,1.83-3.28,11.27,11.27,0,0,0-8.5-18.5ZM50,41.94c-2.94-.07-3.23-1.87-3.23-1.87V38h6.46v2.12S52.94,41.87,50,41.94Zm6.3-13a14.09,14.09,0,0,0-2.4,4.42c-.33,1.32-.47,2-.53,2.3H46.63c-.06-.31-.2-1-.53-2.3a14.09,14.09,0,0,0-2.4-4.42A8.35,8.35,0,0,1,50,15.17h0a8.35,8.35,0,0,1,6.3,13.72Z"/>
    <polygon class="cls-3" points="50 15.17 50 15.17 50 15.17 50 15.17 50 15.17"/>
    <path class="cls-3" d="M49.94,15.17h0Z"/>
    <path class="cls-3" d="M58.17,22.34c0-.17-.05-.35-.08-.53s-.07-.24-.1-.37a3.25,3.25,0,0,0-.11-.42c-.05-.16-.11-.32-.17-.48s-.07-.19-.1-.28-.17-.36-.26-.54l-.09-.19c-.11-.19-.22-.38-.34-.56l-.08-.12q-.2-.29-.42-.57l-.05-.07c-.16-.19-.33-.38-.51-.56l0,0A8.26,8.26,0,0,0,50,15.17h0a8.26,8.26,0,0,0-5.83,2.46l0,0c-.18.18-.35.37-.51.56l-.05.07q-.22.28-.42.57l-.08.12c-.12.18-.23.37-.34.56l-.09.19c-.09.18-.18.35-.26.54s-.06.19-.1.28-.12.32-.17.48a3.25,3.25,0,0,0-.11.42c0,.13-.07.25-.1.37s0,.36-.08.53,0,.2,0,.3a7.92,7.92,0,0,0,0,.85,8.58,8.58,0,0,0,.52,2.92,8.31,8.31,0,0,0,1.44,2.48,16.33,16.33,0,0,1,1,1.42,14.37,14.37,0,0,1,.8,1.42,8.51,8.51,0,0,1,.6,1.58c.08.31.14.58.2.82a1,1,0,0,1,0,.17c0,.17.08.32.11.46l0,.15c0,.13.06.23.08.33l0,.09c0,.11,0,.21.05.28h6.74c0-.07,0-.17.05-.28l0-.09c0-.1.05-.2.08-.33l0-.15c0-.14.07-.29.11-.46a1,1,0,0,1,0-.17c.06-.24.12-.51.2-.82a8.51,8.51,0,0,1,.6-1.58,14.37,14.37,0,0,1,.8-1.42,16.33,16.33,0,0,1,1-1.42,8.31,8.31,0,0,0,1.44-2.48,8.58,8.58,0,0,0,.52-2.92,7.92,7.92,0,0,0,0-.85C58.2,22.54,58.18,22.44,58.17,22.34Z"/>
    <path class="cls-4" d="M50,41.94c-2.94-.07-3.23-1.87-3.23-1.87V38h6.46v2.12S52.94,41.87,50,41.94Z"/>
</svg>